<svg xmlns="http://www.w3.org/2000/svg">
  <symbol id="sparkle" viewBox="0 0 24 24"><path d="M12 2l1.8 6.2L20 10l-6.2 1.8L12 18l-1.8-6.2L4 10l6.2-1.8L12 2z" fill="currentColor"/><path d="M19 16l.8 2.2L22 19l-2.2.8L19 22l-.8-2.2L16 19l2.2-.8L19 16z" fill="currentColor"/></symbol>
  <symbol id="education" viewBox="0 0 24 24"><path d="M3 9l9-5 9 5-9 5-9-5zM7 12v4c3 2.2 7 2.2 10 0v-4M20 10v6" fill="none" stroke="currentColor" stroke-width="2" stroke-linecap="round" stroke-linejoin="round"/></symbol>
  <symbol id="idea" viewBox="0 0 24 24"><path d="M8 15c-1.3-1.1-2-2.7-2-4.5a6 6 0 0112 0c0 1.8-.7 3.4-2 4.5-.8.7-1.2 1.3-1.3 2H9.3c-.1-.7-.5-1.3-1.3-2zM9.5 20h5M10 17v3M14 17v3" fill="none" stroke="currentColor" stroke-width="2" stroke-linecap="round"/></symbol>
  <symbol id="cart" viewBox="0 0 24 24"><path d="M3 4h2l2 11h10l3-8H6M9 19a1.5 1.5 0 110 3 1.5 1.5 0 010-3zM17 19a1.5 1.5 0 110 3 1.5 1.5 0 010-3z" fill="none" stroke="currentColor" stroke-width="2" stroke-linecap="round" stroke-linejoin="round"/></symbol>
  <symbol id="warning" viewBox="0 0 24 24"><path d="M12 3L2.5 20h19L12 3z" fill="#fbbf24" stroke="currentColor" stroke-width="1.5"/><path d="M12 8v6M12 17v.2" fill="none" stroke="#78350f" stroke-width="2.2" stroke-linecap="round"/></symbol>
  <symbol id="shield" viewBox="0 0 24 24"><path d="M12 2l8 3v6c0 5.2-3.3 9-8 11-4.7-2-8-5.8-8-11V5l8-3z" fill="#dbeafe" stroke="currentColor" stroke-width="2"/><path d="M8 12l2.5 2.5L16.5 8" fill="none" stroke="currentColor" stroke-width="2" stroke-linecap="round"/></symbol>
  <symbol id="school" viewBox="0 0 24 24"><path d="M3 9l9-6 9 6v12H3V9zM8 21v-6h8v6M7 10h2v2H7zM15 10h2v2h-2z" fill="none" stroke="currentColor" stroke-width="2" stroke-linejoin="round"/></symbol>
  <symbol id="close" viewBox="0 0 24 24"><circle cx="12" cy="12" r="9" fill="#fee2e2" stroke="currentColor" stroke-width="1.5"/><path d="M8 8l8 8M16 8l-8 8" stroke="currentColor" stroke-width="2.5" stroke-linecap="round"/></symbol>
  <symbol id="sprout" viewBox="0 0 24 24"><path d="M12 21v-9M12 13C8 13 5 10.8 5 7c4 0 7 2 7 6zM12 15c0-4 3-7 7-7 0 4-2.8 7-7 7z" fill="#86efac" stroke="currentColor" stroke-width="1.6" stroke-linecap="round" stroke-linejoin="round"/></symbol>
  <symbol id="water" viewBox="0 0 24 24"><path d="M12 2S5 10.2 5 15a7 7 0 0014 0c0-4.8-7-13-7-13z" fill="#7dd3fc" stroke="currentColor" stroke-width="1.6"/><path d="M9 17c.8 1.4 2 2 3.5 2" fill="none" stroke="#fff" stroke-width="1.5" stroke-linecap="round"/></symbol>
  <symbol id="pesticide" viewBox="0 0 24 24"><path d="M9 3h6v3H9zM8 7h8l2 3v10H6V10l2-3z" fill="#ef4444" stroke="currentColor" stroke-width="1.5"/><path d="M8 13h8M12 10v6" stroke="#fff" stroke-width="1.6" stroke-linecap="round"/></symbol>
  <symbol id="bug" viewBox="0 0 24 24"><path d="M8 8a4 4 0 018 0v8a4 4 0 01-8 0V8z" fill="#a3e635" stroke="currentColor" stroke-width="1.5"/><path d="M10 6L8 3M14 6l2-3M8 10H4M8 15H4M16 10h4M16 15h4M12 8v12" fill="none" stroke="currentColor" stroke-width="1.7" stroke-linecap="round"/></symbol>
  <symbol id="fertilizer" viewBox="0 0 24 24"><path d="M9 3h6M10 3v6l-5 9a2 2 0 002 3h10a2 2 0 002-3l-5-9V3" fill="#c4b5fd" stroke="currentColor" stroke-width="1.6" stroke-linecap="round"/><path d="M7 16h10M10 13h4" stroke="#fff" stroke-width="1.5" stroke-linecap="round"/></symbol>
  <symbol id="pumpkin" viewBox="0 0 24 24"><path d="M12 7c-1-2 0-4 2-5M12 8c-5-3-10 1-9 6s5 8 9 7c4 1 8-2 9-7s-4-9-9-6z" fill="#fb923c" stroke="currentColor" stroke-width="1.6"/><path d="M9 8c-2 4-2 9 0 13M15 8c2 4 2 9 0 13M12 8v13" fill="none" stroke="currentColor" stroke-width="1.2"/></symbol>
  <symbol id="leaf" viewBox="0 0 24 24"><path d="M20 4C11 4 5 8 5 15c0 3 2 5 5 5 7 0 10-7 10-16z" fill="#86efac" stroke="currentColor" stroke-width="1.6"/><path d="M5 21c3-6 7-9 12-13" fill="none" stroke="currentColor" stroke-width="1.8" stroke-linecap="round"/></symbol>
  <symbol id="soil" viewBox="0 0 24 24"><ellipse cx="12" cy="17" rx="9" ry="4" fill="#92400e"/><path d="M4 16c4-3 12-3 16 0" fill="none" stroke="#f59e0b" stroke-width="1.5"/></symbol>
  <symbol id="check-empty" viewBox="0 0 24 24"><rect x="4" y="4" width="16" height="16" rx="3" fill="#fff" stroke="currentColor" stroke-width="2"/></symbol>
  <symbol id="check" viewBox="0 0 24 24"><circle cx="12" cy="12" r="9" fill="#86efac" stroke="currentColor" stroke-width="1.5"/><path d="M7.5 12l3 3 6-7" fill="none" stroke="currentColor" stroke-width="2.3" stroke-linecap="round" stroke-linejoin="round"/></symbol>
  <symbol id="book" viewBox="0 0 24 24"><path d="M3 5c3-1 6 0 9 2v14c-3-2-6-3-9-2V5zM21 5c-3-1-6 0-9 2v14c3-2 6-3 9-2V5z" fill="#dbeafe" stroke="currentColor" stroke-width="1.6" stroke-linejoin="round"/></symbol>
  <symbol id="celebrate" viewBox="0 0 24 24"><path d="M5 21l3-12 7 7-10 5z" fill="#f472b6" stroke="currentColor" stroke-width="1.5"/><path d="M13 5l1-3M17 8l4-2M16 12l5 2M9 5L7 2" stroke="currentColor" stroke-width="1.8" stroke-linecap="round"/></symbol>
  <symbol id="rain" viewBox="0 0 24 24"><path d="M7 15h10a4 4 0 000-8 6 6 0 00-11-1A4.5 4.5 0 007 15z" fill="#cbd5e1" stroke="currentColor" stroke-width="1.5"/><path d="M8 18l-1 3M12 18l-1 3M16 18l-1 3" stroke="#38bdf8" stroke-width="2" stroke-linecap="round"/></symbol>
  <symbol id="moon" viewBox="0 0 24 24"><path d="M19 16.5A8.5 8.5 0 018 5a8.5 8.5 0 1011 11.5z" fill="#fde68a" stroke="currentColor" stroke-width="1.5"/></symbol>
  <symbol id="question" viewBox="0 0 24 24"><circle cx="12" cy="12" r="9" fill="#e2e8f0" stroke="currentColor" stroke-width="1.5"/><path d="M9.5 9a2.7 2.7 0 015.3.7c0 2.3-2.8 2.4-2.8 4.4M12 17.5v.2" fill="none" stroke="currentColor" stroke-width="2" stroke-linecap="round"/></symbol>
  <symbol id="scissors" viewBox="0 0 24 24"><circle cx="6" cy="7" r="3" fill="#fee2e2" stroke="currentColor" stroke-width="1.5"/><circle cx="6" cy="17" r="3" fill="#fee2e2" stroke="currentColor" stroke-width="1.5"/><path d="M8.5 8.5L21 3M8.5 15.5L21 21M10 12l4-2" fill="none" stroke="currentColor" stroke-width="2" stroke-linecap="round"/></symbol>
  <symbol id="root" viewBox="0 0 24 24"><path d="M12 8c-4 0-6 2-5 6 1 3 3 6 5 8 2-2 4-5 5-8 1-4-1-6-5-6z" fill="#fdba74" stroke="currentColor" stroke-width="1.5"/><path d="M12 8V3M12 6L8 3M12 6l4-3" stroke="#16a34a" stroke-width="2" stroke-linecap="round"/></symbol>
  <symbol id="net" viewBox="0 0 24 24"><path d="M3 4h18v16H3zM3 9h18M3 15h18M9 4v16M15 4v16" fill="none" stroke="currentColor" stroke-width="1.5"/></symbol>
  <symbol id="inbox" viewBox="0 0 24 24"><path d="M4 4h16v16H4z" fill="#dbeafe" stroke="currentColor" stroke-width="1.6"/><path d="M8 11h2l2 3 2-3h2M12 4v9" fill="none" stroke="currentColor" stroke-width="2" stroke-linecap="round" stroke-linejoin="round"/></symbol>
  <symbol id="folder" viewBox="0 0 24 24"><path d="M3 6h7l2 2h9v11H3V6z" fill="#fde68a" stroke="currentColor" stroke-width="1.6" stroke-linejoin="round"/></symbol>
  <symbol id="save" viewBox="0 0 24 24"><path d="M4 3h14l2 2v16H4V3z" fill="#bfdbfe" stroke="currentColor" stroke-width="1.6"/><path d="M8 3v6h8V3M8 21v-7h8v7" fill="#fff" stroke="currentColor" stroke-width="1.4"/></symbol>
  <symbol id="gift" viewBox="0 0 24 24"><path d="M4 10h16v11H4zM3 7h18v4H3z" fill="#f9a8d4" stroke="currentColor" stroke-width="1.5"/><path d="M12 7v14M8 7c-4-1-3-5-1-5 2 0 4 3 5 5M16 7c4-1 3-5 1-5-2 0-4 3-5 5" fill="none" stroke="currentColor" stroke-width="1.5"/></symbol>
  <symbol id="sun" viewBox="0 0 24 24"><circle cx="12" cy="12" r="4" fill="#facc15" stroke="currentColor" stroke-width="1.5"/><path d="M12 2v3M12 19v3M2 12h3M19 12h3M5 5l2 2M17 17l2 2M19 5l-2 2M7 17l-2 2" stroke="currentColor" stroke-width="1.8" stroke-linecap="round"/></symbol>
  <symbol id="grave" viewBox="0 0 24 24"><path d="M7 20V8a5 5 0 0110 0v12M4 20h16M9 10h6M12 7v6" fill="#cbd5e1" stroke="currentColor" stroke-width="1.7" stroke-linecap="round"/></symbol>
  <symbol id="medal" viewBox="0 0 24 24"><path d="M8 3l4 7 4-7M12 10a6 6 0 100 12 6 6 0 000-12z" fill="#fde68a" stroke="currentColor" stroke-width="1.7"/><path d="M12 14l1 2 2 .3-1.5 1.5.4 2.2-1.9-1-1.9 1 .4-2.2L9 16.3l2-.3 1-2z" fill="#f59e0b"/></symbol>
  <symbol id="wilt" viewBox="0 0 24 24"><path d="M12 21v-9M12 14c-4 0-7-2-7-6 4 0 7 2 7 6zM12 16c1-3 4-5 7-4-1 3-3 5-7 4z" fill="#d6d3d1" stroke="currentColor" stroke-width="1.6"/><path d="M7 21h10" stroke="#92400e" stroke-width="2" stroke-linecap="round"/></symbol>
  <symbol id="tools" viewBox="0 0 24 24"><path d="M5 3l4 4-2 2-4-4 2-2zM8 8l11 11M16 3a5 5 0 00-4 7l-8 8 2 2 8-8a5 5 0 007-6l-3 3-3-3 3-3a5 5 0 00-2 0z" fill="none" stroke="currentColor" stroke-width="1.8" stroke-linecap="round" stroke-linejoin="round"/></symbol>
  <symbol id="tractor" viewBox="0 0 24 24"><path d="M3 14h11l2-5h4v8h-2M8 14V7h5l3 7" fill="#86efac" stroke="currentColor" stroke-width="1.6" stroke-linejoin="round"/><circle cx="7" cy="18" r="3" fill="#475569"/><circle cx="18" cy="18" r="2" fill="#475569"/></symbol>
  <symbol id="sad" viewBox="0 0 24 24"><circle cx="12" cy="12" r="9" fill="#bfdbfe" stroke="currentColor" stroke-width="1.5"/><path d="M8 9h.1M16 9h.1M8.5 17c2-3 5-3 7 0M6 11l-2 4M18 11l2 4" fill="none" stroke="currentColor" stroke-width="2" stroke-linecap="round"/></symbol>
  <symbol id="lock" viewBox="0 0 24 24"><rect x="5" y="10" width="14" height="11" rx="2" fill="#e2e8f0" stroke="currentColor" stroke-width="1.6"/><path d="M8 10V7a4 4 0 018 0v3M12 14v3" fill="none" stroke="currentColor" stroke-width="2" stroke-linecap="round"/></symbol>
  <symbol id="announcement" viewBox="0 0 24 24"><path d="M3 10v4h4l9 4V6L7 10H3z" fill="#fde68a" stroke="currentColor" stroke-width="1.6"/><path d="M7 14l2 6h3l-2-5M19 8c2 2 2 6 0 8" fill="none" stroke="currentColor" stroke-width="1.8" stroke-linecap="round"/></symbol>
  <symbol id="farmer" viewBox="0 0 24 24"><circle cx="12" cy="9" r="4" fill="#fed7aa" stroke="currentColor" stroke-width="1.5"/><path d="M5 22c0-5 3-8 7-8s7 3 7 8M6 7h12M8 7l1-4h6l1 4" fill="#86efac" stroke="currentColor" stroke-width="1.6" stroke-linejoin="round"/></symbol>
  <symbol id="fruit" viewBox="0 0 24 24"><path d="M12 8c-5-3-9 1-8 6 1 6 5 8 8 6 3 2 7 0 8-6 1-5-3-9-8-6z" fill="#fb923c" stroke="currentColor" stroke-width="1.5"/><path d="M12 8c0-3 2-5 5-5M12 6c-2-2-4-2-6-1 1 2 3 3 6 3" fill="#86efac" stroke="currentColor" stroke-width="1.4" stroke-linecap="round"/></symbol>
  <symbol id="strawberry" viewBox="0 0 24 24"><path d="M5 9c1-5 13-5 14 0-1 7-4 11-7 13-3-2-6-6-7-13z" fill="#fb7185" stroke="currentColor" stroke-width="1.4"/><path d="M8 6l4 2 4-2M9 12h.1M14 11h.1M12 16h.1" stroke="#166534" stroke-width="2" stroke-linecap="round"/></symbol>
  <symbol id="melon" viewBox="0 0 24 24"><circle cx="12" cy="13" r="8" fill="#4ade80" stroke="currentColor" stroke-width="1.5"/><path d="M8 6c-2 4-2 10 0 14M16 6c2 4 2 10 0 14M12 5v16" fill="none" stroke="#166534" stroke-width="1.2"/></symbol>
  <symbol id="storm" viewBox="0 0 24 24"><path d="M7 14h10a4 4 0 000-8 6 6 0 00-11-1A4.5 4.5 0 007 14z" fill="#94a3b8" stroke="currentColor" stroke-width="1.5"/><path d="M12 14l-3 5h3l-1 3 5-6h-3l2-2" fill="#facc15" stroke="currentColor" stroke-width="1.2"/></symbol>
  <symbol id="weather" viewBox="0 0 24 24"><circle cx="8" cy="8" r="4" fill="#facc15"/><path d="M7 17h11a4 4 0 000-8 6 6 0 00-10 2A3.5 3.5 0 007 17z" fill="#dbeafe" stroke="currentColor" stroke-width="1.4"/></symbol>
  <symbol id="hourglass" viewBox="0 0 24 24"><path d="M6 3h12M6 21h12M8 4c0 4 1 6 4 8-3 2-4 4-4 8M16 4c0 4-1 6-4 8 3 2 4 4 4 8" fill="none" stroke="currentColor" stroke-width="1.8" stroke-linecap="round"/></symbol>
</svg>
